<mxfile host="app.diagrams.net" agent="Mozilla/5.0 (Windows NT 10.0; Win64; x64) AppleWebKit/537.36 (KHTML, like Gecko) Chrome/131.0.0.0 Safari/537.36" version="25.0.3">
  <diagram name="Page-1" id="o6laCmyBXh3w7ObMIiIL">
    <mxGraphModel dx="700" dy="271" grid="1" gridSize="10" guides="1" tooltips="1" connect="1" arrows="1" fold="1" page="1" pageScale="1" pageWidth="827" pageHeight="1169" math="0" shadow="0">
      <root>
        <mxCell id="0" />
        <mxCell id="1" parent="0" />
        <mxCell id="vHImkXHxYRs9-SMaKXIV-2" value="" style="html=1;verticalAlign=bottom;startArrow=circle;startFill=1;endArrow=open;startSize=6;endSize=8;curved=0;rounded=0;" edge="1" parent="1">
          <mxGeometry width="80" relative="1" as="geometry">
            <mxPoint x="390" y="210" as="sourcePoint" />
            <mxPoint x="390" y="270" as="targetPoint" />
          </mxGeometry>
        </mxCell>
        <mxCell id="vHImkXHxYRs9-SMaKXIV-3" value="Login" style="rounded=1;whiteSpace=wrap;html=1;" vertex="1" parent="1">
          <mxGeometry x="350" y="270" width="80" height="30" as="geometry" />
        </mxCell>
        <mxCell id="vHImkXHxYRs9-SMaKXIV-4" value="" style="endArrow=classic;html=1;rounded=0;exitX=0.5;exitY=1;exitDx=0;exitDy=0;" edge="1" parent="1" source="vHImkXHxYRs9-SMaKXIV-3">
          <mxGeometry width="50" height="50" relative="1" as="geometry">
            <mxPoint x="390" y="420" as="sourcePoint" />
            <mxPoint x="390" y="330" as="targetPoint" />
          </mxGeometry>
        </mxCell>
        <mxCell id="vHImkXHxYRs9-SMaKXIV-7" style="edgeStyle=orthogonalEdgeStyle;rounded=0;orthogonalLoop=1;jettySize=auto;html=1;exitX=0.5;exitY=1;exitDx=0;exitDy=0;" edge="1" parent="1" source="vHImkXHxYRs9-SMaKXIV-5" target="vHImkXHxYRs9-SMaKXIV-8">
          <mxGeometry relative="1" as="geometry">
            <mxPoint x="393.7142857142858" y="390" as="targetPoint" />
          </mxGeometry>
        </mxCell>
        <mxCell id="vHImkXHxYRs9-SMaKXIV-5" value="View Complaint Data" style="rounded=1;whiteSpace=wrap;html=1;arcSize=17;" vertex="1" parent="1">
          <mxGeometry x="340" y="330" width="107.5" height="30" as="geometry" />
        </mxCell>
        <mxCell id="vHImkXHxYRs9-SMaKXIV-9" style="edgeStyle=orthogonalEdgeStyle;rounded=0;orthogonalLoop=1;jettySize=auto;html=1;" edge="1" parent="1" source="vHImkXHxYRs9-SMaKXIV-8">
          <mxGeometry relative="1" as="geometry">
            <mxPoint x="393.8285714285714" y="470" as="targetPoint" />
          </mxGeometry>
        </mxCell>
        <mxCell id="vHImkXHxYRs9-SMaKXIV-8" value="Enters Filter Parameters" style="rounded=1;whiteSpace=wrap;html=1;" vertex="1" parent="1">
          <mxGeometry x="333.75" y="400" width="120" height="40" as="geometry" />
        </mxCell>
        <mxCell id="vHImkXHxYRs9-SMaKXIV-11" value="" style="rhombus;whiteSpace=wrap;html=1;" vertex="1" parent="1">
          <mxGeometry x="369.21999999999997" y="470" width="49.06" height="40" as="geometry" />
        </mxCell>
        <mxCell id="vHImkXHxYRs9-SMaKXIV-13" value="" style="endArrow=none;html=1;rounded=0;entryX=0;entryY=0.5;entryDx=0;entryDy=0;" edge="1" parent="1" target="vHImkXHxYRs9-SMaKXIV-11">
          <mxGeometry width="50" height="50" relative="1" as="geometry">
            <mxPoint x="270" y="490" as="sourcePoint" />
            <mxPoint x="320" y="440" as="targetPoint" />
          </mxGeometry>
        </mxCell>
        <mxCell id="vHImkXHxYRs9-SMaKXIV-22" style="edgeStyle=orthogonalEdgeStyle;rounded=0;orthogonalLoop=1;jettySize=auto;html=1;entryX=0.5;entryY=0;entryDx=0;entryDy=0;" edge="1" parent="1" source="vHImkXHxYRs9-SMaKXIV-15" target="vHImkXHxYRs9-SMaKXIV-18">
          <mxGeometry relative="1" as="geometry" />
        </mxCell>
        <mxCell id="vHImkXHxYRs9-SMaKXIV-15" value="Filtered Data" style="rounded=1;whiteSpace=wrap;html=1;" vertex="1" parent="1">
          <mxGeometry x="230" y="520" width="93.75" height="40" as="geometry" />
        </mxCell>
        <mxCell id="vHImkXHxYRs9-SMaKXIV-23" style="edgeStyle=orthogonalEdgeStyle;rounded=0;orthogonalLoop=1;jettySize=auto;html=1;" edge="1" parent="1" source="vHImkXHxYRs9-SMaKXIV-18">
          <mxGeometry relative="1" as="geometry">
            <mxPoint x="275" y="670" as="targetPoint" />
          </mxGeometry>
        </mxCell>
        <mxCell id="vHImkXHxYRs9-SMaKXIV-18" value="Request Export to Excel&amp;nbsp;" style="rounded=1;whiteSpace=wrap;html=1;" vertex="1" parent="1">
          <mxGeometry x="230" y="585" width="90" height="40" as="geometry" />
        </mxCell>
        <mxCell id="vHImkXHxYRs9-SMaKXIV-24" value="" style="endArrow=classic;html=1;rounded=0;entryX=0.427;entryY=0;entryDx=0;entryDy=0;entryPerimeter=0;" edge="1" parent="1" target="vHImkXHxYRs9-SMaKXIV-15">
          <mxGeometry width="50" height="50" relative="1" as="geometry">
            <mxPoint x="270" y="490" as="sourcePoint" />
            <mxPoint x="320" y="520" as="targetPoint" />
          </mxGeometry>
        </mxCell>
        <mxCell id="vHImkXHxYRs9-SMaKXIV-26" style="edgeStyle=orthogonalEdgeStyle;rounded=0;orthogonalLoop=1;jettySize=auto;html=1;" edge="1" parent="1" source="vHImkXHxYRs9-SMaKXIV-25" target="vHImkXHxYRs9-SMaKXIV-27">
          <mxGeometry relative="1" as="geometry">
            <mxPoint x="275" y="740" as="targetPoint" />
          </mxGeometry>
        </mxCell>
        <mxCell id="vHImkXHxYRs9-SMaKXIV-25" value="Export data to excel" style="rounded=1;whiteSpace=wrap;html=1;" vertex="1" parent="1">
          <mxGeometry x="230" y="670" width="90" height="40" as="geometry" />
        </mxCell>
        <mxCell id="vHImkXHxYRs9-SMaKXIV-27" value="Downloaded CSV file" style="rounded=1;whiteSpace=wrap;html=1;" vertex="1" parent="1">
          <mxGeometry x="222.5" y="740" width="105" height="30" as="geometry" />
        </mxCell>
        <mxCell id="vHImkXHxYRs9-SMaKXIV-28" value="" style="endArrow=none;html=1;rounded=0;exitX=1;exitY=0.5;exitDx=0;exitDy=0;" edge="1" parent="1" source="vHImkXHxYRs9-SMaKXIV-11">
          <mxGeometry width="50" height="50" relative="1" as="geometry">
            <mxPoint x="150" y="680" as="sourcePoint" />
            <mxPoint x="510" y="490" as="targetPoint" />
            <Array as="points">
              <mxPoint x="470" y="490" />
            </Array>
          </mxGeometry>
        </mxCell>
        <mxCell id="vHImkXHxYRs9-SMaKXIV-29" value="" style="endArrow=none;html=1;rounded=0;" edge="1" parent="1">
          <mxGeometry width="50" height="50" relative="1" as="geometry">
            <mxPoint x="510" y="840" as="sourcePoint" />
            <mxPoint x="510" y="490" as="targetPoint" />
          </mxGeometry>
        </mxCell>
        <mxCell id="vHImkXHxYRs9-SMaKXIV-31" value="" style="endArrow=classic;html=1;rounded=0;entryX=1;entryY=0.5;entryDx=0;entryDy=0;" edge="1" parent="1" target="vHImkXHxYRs9-SMaKXIV-35">
          <mxGeometry width="50" height="50" relative="1" as="geometry">
            <mxPoint x="510" y="840" as="sourcePoint" />
            <mxPoint x="420" y="840" as="targetPoint" />
          </mxGeometry>
        </mxCell>
        <mxCell id="vHImkXHxYRs9-SMaKXIV-34" value="" style="endArrow=classic;html=1;rounded=0;exitX=0.5;exitY=1;exitDx=0;exitDy=0;" edge="1" parent="1" source="vHImkXHxYRs9-SMaKXIV-27" target="vHImkXHxYRs9-SMaKXIV-35">
          <mxGeometry width="50" height="50" relative="1" as="geometry">
            <mxPoint x="230" y="830" as="sourcePoint" />
            <mxPoint x="360" y="840" as="targetPoint" />
            <Array as="points">
              <mxPoint x="275" y="840" />
            </Array>
          </mxGeometry>
        </mxCell>
        <mxCell id="vHImkXHxYRs9-SMaKXIV-37" style="edgeStyle=orthogonalEdgeStyle;rounded=0;orthogonalLoop=1;jettySize=auto;html=1;" edge="1" parent="1" source="vHImkXHxYRs9-SMaKXIV-35">
          <mxGeometry relative="1" as="geometry">
            <mxPoint x="388.28" y="910" as="targetPoint" />
          </mxGeometry>
        </mxCell>
        <mxCell id="vHImkXHxYRs9-SMaKXIV-35" value="" style="rhombus;whiteSpace=wrap;html=1;" vertex="1" parent="1">
          <mxGeometry x="358.28" y="820" width="60" height="50" as="geometry" />
        </mxCell>
        <mxCell id="vHImkXHxYRs9-SMaKXIV-38" value="" style="ellipse;html=1;shape=endState;fillColor=#000000;strokeColor=#ff0000;" vertex="1" parent="1">
          <mxGeometry x="373.28" y="910" width="30" height="30" as="geometry" />
        </mxCell>
        <mxCell id="vHImkXHxYRs9-SMaKXIV-40" value="No data found" style="rounded=1;whiteSpace=wrap;html=1;" vertex="1" parent="1">
          <mxGeometry x="470" y="550" width="90" height="40" as="geometry" />
        </mxCell>
      </root>
    </mxGraphModel>
  </diagram>
</mxfile>
